<?xml version="1.0" standalone="no"?><!DOCTYPE svg PUBLIC "-//W3C//DTD SVG 1.1//EN" "http://www.w3.org/Graphics/SVG/1.1/DTD/svg11.dtd"><svg t="1705929114407" class="icon" viewBox="0 0 1024 1024" version="1.1" xmlns="http://www.w3.org/2000/svg" p-id="2898" xmlns:xlink="http://www.w3.org/1999/xlink" width="200" height="200"><path d="M187.7863218 595.62837703c0-179.04700379 145.16667442-324.2136782 324.2136782-324.21367818s324.2136782 145.16667442 324.2136782 324.21367818v405.26709776H187.7863218V595.62837703z" fill="#FEA04E" p-id="2899"></path><path d="M133.75070835 595.62837703c0-208.90167956 169.34761084-378.24929165 378.24929165-378.24929164s378.24929165 169.34761084 378.24929165 378.24929164v405.26709776a54.03561344 54.03561344 0 0 1-54.03561345 54.0356122H187.7863218a54.03561344 54.03561344 0 0 1-54.03561345-54.0356122V595.62837703z m378.24929165-270.17806598c-149.21934537 0-270.17806475 120.95871935-270.17806475 270.17806598v351.23148431h540.3561295V595.62837703c0-149.21934537-120.95871935-270.17806475-270.17806475-270.17806598z" fill="#FEA04E" p-id="2900"></path><path d="M586.13686148 496.04074181L526.37347263 595.62837703h162.10683911l-157.94609605 263.26150672-92.67107717-55.60264581L497.62652737 703.69960271h-162.10683911l157.94609605-263.2615067 92.67107717 55.6026458z" fill="#ffffff" p-id="2901"></path><path d="M-1.33832339 946.85986134h1026.67664678v108.07122565H-1.33832339v-108.07122565zM566.03561344-25.78117324v162.10683911h-108.07122688V-25.78117324h108.07122688zM966.65564763 190.3612793l-114.60953522 114.63655263-76.43337465-76.4333746L890.24929165 113.95492206 966.65564763 190.3612793zM133.75070835 113.95492206l114.63655389 114.60953527-76.43337465 76.4333746L57.34435237 190.3612793 133.75070835 113.95492206z" fill="#FEA04E" p-id="2902"></path></svg>