<?xml version="1.0" standalone="no"?><!DOCTYPE svg PUBLIC "-//W3C//DTD SVG 1.1//EN" "http://www.w3.org/Graphics/SVG/1.1/DTD/svg11.dtd"><svg t="1705929476114" class="icon" viewBox="0 0 1024 1024" version="1.1" xmlns="http://www.w3.org/2000/svg" p-id="3050" xmlns:xlink="http://www.w3.org/1999/xlink" width="200" height="200"><path d="M599.12192 244.5312c24.04352-42.31168 86.75328-42.31168 110.7968 0l240.72192 424.67328c23.18336 40.87808-7.29088 90.84928-55.37792 90.84928H413.77792c-48.08704 0-78.56128-49.9712-55.37792-90.84928L599.12192 244.5312z" fill="#FC9F9F" p-id="3051"></path><path d="M416.72704 223.47776c30.72-53.90336 111.0016-53.90336 141.7216 0l308.14208 540.2624c29.65504 52.0192-9.33888 115.63008-70.8608 115.63008H179.48672c-61.52192 0-100.51584-63.61088-70.8608-115.63008l308.10112-540.2624z" fill="#FF5C45" p-id="3052"></path><path d="M524.45184 395.59168a36.864 36.864 0 1 0-73.728 0v184.32a36.864 36.864 0 1 0 73.728 0v-184.32zM487.58784 786.0224a61.44 61.44 0 1 0 0-122.92096 61.44 61.44 0 0 0 0 122.88z" fill="#FFFFFF" p-id="3053"></path></svg>